<svg width="257" height="31" viewBox="0 0 257 31" fill="none" xmlns="http://www.w3.org/2000/svg">
<path d="M8.10156 9.73828H5.79688V20.6855H8.10156V16.3008H12.9551V19.377C12.9551 19.6374 12.9388 19.9173 12.9062 20.2168C12.8802 20.5163 12.8021 20.8158 12.6719 21.1152C12.5482 21.4082 12.3594 21.6914 12.1055 21.9648C11.8516 22.2383 11.5 22.4792 11.0508 22.6875C10.6081 22.8958 10.0514 23.0618 9.38086 23.1855C8.7168 23.3158 7.90625 23.3809 6.94922 23.3809C5.9987 23.3809 5.19141 23.3158 4.52734 23.1855C3.86328 23.0618 3.30664 22.8958 2.85742 22.6875C2.41471 22.4792 2.06641 22.2383 1.8125 21.9648C1.55859 21.6914 1.36654 21.4082 1.23633 21.1152C1.10612 20.8158 1.02474 20.5163 0.992188 20.2168C0.959635 19.9173 0.943359 19.6374 0.943359 19.377V11.0176C0.943359 10.7572 0.959635 10.4805 0.992188 10.1875C1.02474 9.88802 1.10286 9.5918 1.22656 9.29883C1.35677 9.00586 1.54883 8.72591 1.80273 8.45898C2.06315 8.18555 2.41471 7.94792 2.85742 7.74609C3.30013 7.53776 3.85026 7.37174 4.50781 7.24805C5.17188 7.12435 5.97591 7.0625 6.91992 7.0625C7.88346 7.0625 8.70052 7.12435 9.37109 7.24805C10.0417 7.37174 10.6016 7.53776 11.0508 7.74609C11.5 7.94792 11.8516 8.18555 12.1055 8.45898C12.3594 8.72591 12.5482 9.00586 12.6719 9.29883C12.8021 9.5918 12.8802 9.88802 12.9062 10.1875C12.9388 10.4805 12.9551 10.7572 12.9551 11.0176V14.123H8.10156V9.73828ZM21.9758 16.6621H19.6711V23H14.8176V7.42383H21.1555C22.0995 7.42383 22.8937 7.48568 23.5383 7.60938C24.1893 7.72656 24.7232 7.89258 25.1398 8.10742C25.563 8.31576 25.8885 8.56641 26.1164 8.85938C26.3443 9.15234 26.5103 9.47461 26.6145 9.82617C26.7186 10.1777 26.7805 10.5521 26.8 10.9492C26.8195 11.3464 26.8293 11.75 26.8293 12.1602C26.8293 12.5443 26.8033 12.9186 26.7512 13.2832C26.7056 13.6413 26.6079 13.9668 26.4582 14.2598C26.3085 14.5527 26.0936 14.8034 25.8137 15.0117C25.5402 15.2201 25.1789 15.3633 24.7297 15.4414C24.938 15.4609 25.1626 15.5195 25.4035 15.6172C25.6509 15.7083 25.8788 15.8613 26.0871 16.0762C26.302 16.2845 26.4777 16.5645 26.6145 16.916C26.7577 17.2676 26.8293 17.7103 26.8293 18.2441V23H21.9758V16.6621ZM19.6711 14.3965H21.9758V9.73828H19.6711V14.3965ZM33.5844 7.42383V23H28.7309V7.42383H33.5844ZM39.4996 19.1621L39.0992 23H34.0699L36.5699 7.42383H44.9488L47.4488 23H42.4L42.0191 19.1621H39.4996ZM39.7535 17.4141H41.7652L40.7496 9.70898L39.7535 17.4141ZM55.5125 9.73828H53.2078V20.6855H55.5125V16.3008H60.366V19.377C60.366 19.6374 60.3497 19.9173 60.3172 20.2168C60.2911 20.5163 60.213 20.8158 60.0828 21.1152C59.9591 21.4082 59.7703 21.6914 59.5164 21.9648C59.2625 22.2383 58.9109 22.4792 58.4617 22.6875C58.019 22.8958 57.4624 23.0618 56.7918 23.1855C56.1277 23.3158 55.3172 23.3809 54.3602 23.3809C53.4096 23.3809 52.6023 23.3158 51.9383 23.1855C51.2742 23.0618 50.7176 22.8958 50.2684 22.6875C49.8257 22.4792 49.4773 22.2383 49.2234 21.9648C48.9695 21.6914 48.7775 21.4082 48.6473 21.1152C48.5171 20.8158 48.4357 20.5163 48.4031 20.2168C48.3706 19.9173 48.3543 19.6374 48.3543 19.377V11.0176C48.3543 10.7572 48.3706 10.4805 48.4031 10.1875C48.4357 9.88802 48.5138 9.5918 48.6375 9.29883C48.7677 9.00586 48.9598 8.72591 49.2137 8.45898C49.4741 8.18555 49.8257 7.94792 50.2684 7.74609C50.7111 7.53776 51.2612 7.37174 51.9188 7.24805C52.5828 7.12435 53.3868 7.0625 54.3309 7.0625C55.2944 7.0625 56.1115 7.12435 56.782 7.24805C57.4526 7.37174 58.0125 7.53776 58.4617 7.74609C58.9109 7.94792 59.2625 8.18555 59.5164 8.45898C59.7703 8.72591 59.9591 9.00586 60.0828 9.29883C60.213 9.5918 60.2911 9.88802 60.3172 10.1875C60.3497 10.4805 60.366 10.7572 60.366 11.0176V14.123H55.5125V9.73828ZM53.3836 22.9219H55.9617V24.0352C56.4956 24.0352 56.948 24.0742 57.3191 24.1523C57.6967 24.2305 58.0092 24.3346 58.2566 24.4648C58.504 24.6016 58.6961 24.7546 58.8328 24.9238C58.976 25.0931 59.0802 25.2721 59.1453 25.4609C59.2104 25.6497 59.2495 25.8385 59.2625 26.0273C59.282 26.2227 59.2918 26.4049 59.2918 26.5742V28.0977C59.2918 28.2669 59.282 28.4492 59.2625 28.6445C59.2495 28.8398 59.2039 29.0286 59.1258 29.2109C59.0542 29.3997 58.9402 29.5788 58.784 29.748C58.6342 29.9238 58.4227 30.0768 58.1492 30.207C57.8823 30.3372 57.5405 30.4414 57.1238 30.5195C56.7137 30.5977 56.2124 30.6367 55.6199 30.6367C55.021 30.6367 54.5132 30.5977 54.0965 30.5195C53.6798 30.4414 53.3348 30.3372 53.0613 30.207C52.7879 30.0768 52.5763 29.9238 52.4266 29.748C52.2768 29.5788 52.1661 29.3997 52.0945 29.2109C52.0229 29.0286 51.9773 28.8398 51.9578 28.6445C51.9448 28.4557 51.9383 28.2734 51.9383 28.0977V27.0527L55.2977 26.4375V28.8789H55.9617V25.8125H53.3836V22.9219ZM66.7207 19.1621L66.3203 23H61.291L63.791 7.42383H72.1699L74.6699 23H69.6211L69.2402 19.1621H66.7207ZM66.9746 17.4141H68.9863L67.9707 9.70898L66.9746 17.4141ZM69.0059 4.68945C68.8431 4.68945 68.6901 4.73503 68.5469 4.82617C68.4102 4.91732 68.2604 5.03125 68.0977 5.16797C67.9414 5.30469 67.7689 5.45443 67.5801 5.61719C67.3913 5.77995 67.1699 5.92969 66.916 6.06641C66.6621 6.20312 66.3659 6.31706 66.0273 6.4082C65.6953 6.49935 65.3047 6.54492 64.8555 6.54492C64.276 6.54492 63.7617 6.46029 63.3125 6.29102C62.8698 6.12174 62.4954 5.81576 62.1895 5.37305C61.89 4.93034 61.6621 4.32487 61.5059 3.55664C61.3496 2.7819 61.2715 1.78906 61.2715 0.578125H63.8887C63.8887 0.792969 63.9049 1.0013 63.9375 1.20312C63.9701 1.39844 64.0254 1.57096 64.1035 1.7207C64.1816 1.87044 64.2826 1.99089 64.4062 2.08203C64.5299 2.17318 64.6862 2.21875 64.875 2.21875C65.0378 2.21875 65.194 2.17318 65.3438 2.08203C65.5 1.98438 65.6628 1.86719 65.832 1.73047C66.0078 1.59375 66.1934 1.44401 66.3887 1.28125C66.5905 1.11198 66.8151 0.958984 67.0625 0.822266C67.3164 0.685547 67.6029 0.571615 67.9219 0.480469C68.2409 0.382812 68.6022 0.333984 69.0059 0.333984C69.5853 0.333984 70.0996 0.41862 70.5488 0.587891C70.998 0.750651 71.3724 1.05339 71.6719 1.49609C71.9779 1.9388 72.209 2.54753 72.3652 3.32227C72.5215 4.09049 72.5996 5.08008 72.5996 6.29102H69.9727C69.9727 6.10872 69.9564 5.92318 69.9238 5.73438C69.8913 5.54557 69.8359 5.37305 69.7578 5.2168C69.6862 5.06055 69.5885 4.93359 69.4648 4.83594C69.3411 4.73828 69.1882 4.68945 69.0059 4.68945ZM80.4094 20.6855H82.7141V9.73828H80.4094V20.6855ZM81.4934 23.3809C80.5494 23.3809 79.7453 23.3158 79.0813 23.1855C78.4172 23.0618 77.8638 22.8958 77.4211 22.6875C76.9849 22.4792 76.6398 22.2383 76.3859 21.9648C76.1385 21.6914 75.953 21.4082 75.8293 21.1152C75.7056 20.8158 75.6275 20.5163 75.5949 20.2168C75.5689 19.9173 75.5559 19.6374 75.5559 19.377V11.0176C75.5559 10.7572 75.5689 10.4805 75.5949 10.1875C75.6275 9.88802 75.7056 9.5918 75.8293 9.29883C75.953 9.00586 76.1385 8.72591 76.3859 8.45898C76.6398 8.18555 76.9849 7.94792 77.4211 7.74609C77.8638 7.53776 78.4139 7.37174 79.0715 7.24805C79.7355 7.12435 80.5428 7.0625 81.4934 7.0625C82.4504 7.0625 83.2642 7.12435 83.9348 7.24805C84.6119 7.37174 85.175 7.53776 85.6242 7.74609C86.0734 7.94792 86.4283 8.18555 86.6887 8.45898C86.9491 8.72591 87.1444 9.00586 87.2746 9.29883C87.4048 9.5918 87.4862 9.88802 87.5188 10.1875C87.5513 10.4805 87.5676 10.7572 87.5676 11.0176V19.377C87.5676 19.6374 87.5513 19.9173 87.5188 20.2168C87.4862 20.5163 87.4048 20.8158 87.2746 21.1152C87.1444 21.4082 86.9491 21.6914 86.6887 21.9648C86.4283 22.2383 86.0734 22.4792 85.6242 22.6875C85.175 22.8958 84.6119 23.0618 83.9348 23.1855C83.2642 23.3158 82.4504 23.3809 81.4934 23.3809ZM98.4313 20.6855H100.736V9.73828H98.4313V20.6855ZM105.589 19.1621C105.589 19.4225 105.58 19.6992 105.56 19.9922C105.547 20.2786 105.489 20.5651 105.384 20.8516C105.287 21.138 105.127 21.4115 104.906 21.6719C104.685 21.9258 104.372 22.1536 103.968 22.3555C103.565 22.5508 103.05 22.707 102.425 22.8242C101.807 22.9414 101.042 23 100.13 23H93.5777V7.42383H100.13C101.042 7.42383 101.807 7.48242 102.425 7.59961C103.05 7.7168 103.565 7.87305 103.968 8.06836C104.372 8.26367 104.685 8.49154 104.906 8.75195C105.127 9.00586 105.287 9.27604 105.384 9.5625C105.489 9.84245 105.547 10.1289 105.56 10.4219C105.58 10.7083 105.589 10.9818 105.589 11.2422V19.1621ZM115.479 7.42383V9.73828H112.462V13.6152H115.274V16.0566H112.462V20.6855H115.479V23H107.608V7.42383H115.479Z" fill="white"/>
<path d="M121.157 23V7.42383H126.011V20.6855H129.019V23H121.157ZM135.002 20.6855H137.307V9.73828H135.002V20.6855ZM136.086 23.3809C135.142 23.3809 134.338 23.3158 133.674 23.1855C133.01 23.0618 132.457 22.8958 132.014 22.6875C131.578 22.4792 131.233 22.2383 130.979 21.9648C130.732 21.6914 130.546 21.4082 130.422 21.1152C130.299 20.8158 130.22 20.5163 130.188 20.2168C130.162 19.9173 130.149 19.6374 130.149 19.377V11.0176C130.149 10.7572 130.162 10.4805 130.188 10.1875C130.22 9.88802 130.299 9.5918 130.422 9.29883C130.546 9.00586 130.732 8.72591 130.979 8.45898C131.233 8.18555 131.578 7.94792 132.014 7.74609C132.457 7.53776 133.007 7.37174 133.664 7.24805C134.329 7.12435 135.136 7.0625 136.086 7.0625C137.043 7.0625 137.857 7.12435 138.528 7.24805C139.205 7.37174 139.768 7.53776 140.217 7.74609C140.666 7.94792 141.021 8.18555 141.282 8.45898C141.542 8.72591 141.737 9.00586 141.868 9.29883C141.998 9.5918 142.079 9.88802 142.112 10.1875C142.144 10.4805 142.161 10.7572 142.161 11.0176V19.377C142.161 19.6374 142.144 19.9173 142.112 20.2168C142.079 20.5163 141.998 20.8158 141.868 21.1152C141.737 21.4082 141.542 21.6914 141.282 21.9648C141.021 22.2383 140.666 22.4792 140.217 22.6875C139.768 22.8958 139.205 23.0618 138.528 23.1855C137.857 23.3158 137.043 23.3809 136.086 23.3809ZM155.957 16.3008V23H151.709L151.24 21.9844C151.11 22.2448 150.931 22.4759 150.703 22.6777C150.507 22.847 150.244 23.0033 149.912 23.1465C149.586 23.2897 149.173 23.3613 148.671 23.3613C148.053 23.3613 147.506 23.3027 147.031 23.1855C146.562 23.0684 146.152 22.9089 145.8 22.707C145.449 22.5052 145.153 22.2741 144.912 22.0137C144.677 21.7533 144.489 21.4798 144.345 21.1934C144.202 20.9069 144.098 20.6204 144.033 20.334C143.974 20.041 143.945 19.7643 143.945 19.5039V11.0176C143.945 10.7376 143.961 10.4447 143.994 10.1387C144.033 9.83268 144.114 9.5332 144.238 9.24023C144.368 8.94727 144.56 8.67057 144.814 8.41016C145.074 8.14323 145.423 7.91211 145.859 7.7168C146.302 7.51497 146.852 7.35547 147.509 7.23828C148.173 7.12109 148.974 7.0625 149.912 7.0625C150.83 7.0625 151.614 7.12435 152.265 7.24805C152.923 7.37174 153.473 7.53776 153.916 7.74609C154.365 7.94792 154.723 8.18555 154.99 8.45898C155.263 8.72591 155.468 9.00586 155.605 9.29883C155.748 9.5918 155.843 9.88802 155.888 10.1875C155.934 10.4805 155.957 10.7572 155.957 11.0176V14.123H151.103V9.73828H148.798V20.6855H151.943V18.5566H150.537V16.3008H155.957ZM162.692 20.6855H164.997V9.73828H162.692V20.6855ZM163.776 23.3809C162.832 23.3809 162.028 23.3158 161.364 23.1855C160.7 23.0618 160.147 22.8958 159.704 22.6875C159.268 22.4792 158.923 22.2383 158.669 21.9648C158.421 21.6914 158.236 21.4082 158.112 21.1152C157.988 20.8158 157.91 20.5163 157.878 20.2168C157.852 19.9173 157.839 19.6374 157.839 19.377V11.0176C157.839 10.7572 157.852 10.4805 157.878 10.1875C157.91 9.88802 157.988 9.5918 158.112 9.29883C158.236 9.00586 158.421 8.72591 158.669 8.45898C158.923 8.18555 159.268 7.94792 159.704 7.74609C160.147 7.53776 160.697 7.37174 161.354 7.24805C162.018 7.12435 162.826 7.0625 163.776 7.0625C164.733 7.0625 165.547 7.12435 166.218 7.24805C166.895 7.37174 167.458 7.53776 167.907 7.74609C168.356 7.94792 168.711 8.18555 168.971 8.45898C169.232 8.72591 169.427 9.00586 169.557 9.29883C169.688 9.5918 169.769 9.88802 169.802 10.1875C169.834 10.4805 169.85 10.7572 169.85 11.0176V19.377C169.85 19.6374 169.834 19.9173 169.802 20.2168C169.769 20.5163 169.688 20.8158 169.557 21.1152C169.427 21.4082 169.232 21.6914 168.971 21.9648C168.711 22.2383 168.356 22.4792 167.907 22.6875C167.458 22.8958 166.895 23.0618 166.218 23.1855C165.547 23.3158 164.733 23.3809 163.776 23.3809ZM180.717 23H177.162L175.16 14.0547V23H171.449V7.42383H177.445L178.939 16.9258L180.434 7.42383H186.43V23H182.719V14.0547L180.717 23ZM194.161 19.1621L193.761 23H188.732L191.232 7.42383H199.611L202.111 23H197.062L196.681 19.1621H194.161ZM194.415 17.4141H196.427L195.411 9.70898L194.415 17.4141ZM210.33 16.6621H208.026V23H203.172V7.42383H209.51C210.454 7.42383 211.248 7.48568 211.893 7.60938C212.544 7.72656 213.078 7.89258 213.495 8.10742C213.918 8.31576 214.243 8.56641 214.471 8.85938C214.699 9.15234 214.865 9.47461 214.969 9.82617C215.073 10.1777 215.135 10.5521 215.155 10.9492C215.174 11.3464 215.184 11.75 215.184 12.1602C215.184 12.5443 215.158 12.9186 215.106 13.2832C215.06 13.6413 214.963 13.9668 214.813 14.2598C214.663 14.5527 214.448 14.8034 214.168 15.0117C213.895 15.2201 213.534 15.3633 213.084 15.4414C213.293 15.4609 213.517 15.5195 213.758 15.6172C214.006 15.7083 214.233 15.8613 214.442 16.0762C214.657 16.2845 214.832 16.5645 214.969 16.916C215.112 17.2676 215.184 17.7103 215.184 18.2441V23H210.33V16.6621ZM208.026 14.3965H210.33V9.73828H208.026V14.3965ZM224.068 9.73828H221.763V20.6855H224.068V16.3008H228.921V19.377C228.921 19.6374 228.905 19.9173 228.873 20.2168C228.847 20.5163 228.768 20.8158 228.638 21.1152C228.515 21.4082 228.326 21.6914 228.072 21.9648C227.818 22.2383 227.466 22.4792 227.017 22.6875C226.574 22.8958 226.018 23.0618 225.347 23.1855C224.683 23.3158 223.873 23.3809 222.916 23.3809C221.965 23.3809 221.158 23.3158 220.494 23.1855C219.83 23.0618 219.273 22.8958 218.824 22.6875C218.381 22.4792 218.033 22.2383 217.779 21.9648C217.525 21.6914 217.333 21.4082 217.203 21.1152C217.073 20.8158 216.991 20.5163 216.959 20.2168C216.926 19.9173 216.91 19.6374 216.91 19.377V11.0176C216.91 10.7572 216.926 10.4805 216.959 10.1875C216.991 9.88802 217.069 9.5918 217.193 9.29883C217.323 9.00586 217.515 8.72591 217.769 8.45898C218.03 8.18555 218.381 7.94792 218.824 7.74609C219.267 7.53776 219.817 7.37174 220.474 7.24805C221.138 7.12435 221.942 7.0625 222.886 7.0625C223.85 7.0625 224.667 7.12435 225.337 7.24805C226.008 7.37174 226.568 7.53776 227.017 7.74609C227.466 7.94792 227.818 8.18555 228.072 8.45898C228.326 8.72591 228.515 9.00586 228.638 9.29883C228.768 9.5918 228.847 9.88802 228.873 10.1875C228.905 10.4805 228.921 10.7572 228.921 11.0176V14.123H224.068V9.73828ZM235.257 19.1621L234.856 23H229.827L232.327 7.42383H240.706L243.206 23H238.157L237.776 19.1621H235.257ZM235.511 17.4141H237.522L236.507 9.70898L235.511 17.4141ZM248.965 11.9844C248.965 12.1927 249.066 12.3587 249.268 12.4824C249.476 12.6061 249.746 12.7168 250.078 12.8145C250.417 12.9056 250.801 12.9967 251.23 13.0879C251.66 13.179 252.096 13.2962 252.539 13.4395C252.988 13.5762 253.428 13.7552 253.857 13.9766C254.287 14.1914 254.668 14.4746 255 14.8262C255.339 15.1712 255.609 15.5977 255.811 16.1055C256.019 16.6133 256.123 17.2253 256.123 17.9414C256.123 18.4557 256.11 18.9473 256.084 19.416C256.058 19.8848 255.986 20.321 255.869 20.7246C255.752 21.1217 255.57 21.4831 255.322 21.8086C255.075 22.1341 254.727 22.4141 254.277 22.6484C253.835 22.8763 253.275 23.0521 252.598 23.1758C251.921 23.2995 251.094 23.3613 250.117 23.3613C249.251 23.3613 248.493 23.3158 247.842 23.2246C247.197 23.14 246.644 23.0065 246.182 22.8242C245.719 22.6419 245.339 22.4108 245.039 22.1309C244.746 21.8444 244.512 21.5091 244.336 21.125C244.167 20.7409 244.049 20.3014 243.984 19.8066C243.919 19.3118 243.887 18.7617 243.887 18.1562H248.965V20.6855H251.27V17.7949C251.27 17.6061 251.165 17.4499 250.957 17.3262C250.755 17.2025 250.485 17.0918 250.146 16.9941C249.814 16.89 249.434 16.7891 249.004 16.6914C248.574 16.5938 248.135 16.4766 247.686 16.3398C247.243 16.2031 246.807 16.0371 246.377 15.8418C245.947 15.6465 245.563 15.4056 245.225 15.1191C244.893 14.8262 244.622 14.4779 244.414 14.0742C244.212 13.6641 244.111 13.1758 244.111 12.6094C244.111 11.9062 244.147 11.2812 244.219 10.7344C244.29 10.181 244.414 9.69922 244.59 9.28906C244.766 8.87891 245.003 8.53385 245.303 8.25391C245.602 7.96745 245.977 7.73633 246.426 7.56055C246.882 7.38477 247.419 7.25781 248.037 7.17969C248.662 7.10156 249.388 7.0625 250.215 7.0625C251.4 7.0625 252.373 7.14062 253.135 7.29688C253.903 7.45312 254.508 7.71354 254.951 8.07812C255.394 8.44271 255.7 8.92122 255.869 9.51367C256.038 10.1061 256.123 10.832 256.123 11.6914H251.27V9.73828H248.965V11.9844Z" fill="#B000BF"/>
</svg>
