<svg width="199" height="168" viewBox="0 0 199 168" fill="none" xmlns="http://www.w3.org/2000/svg">
<g clip-path="url(#clip0_36_89)">
<path d="M126.62 8.26766C90.1814 -16.4599 53.9514 17.6609 17.5446 71.2588C-93.9249 235.392 371.828 174.601 126.62 8.26766Z" fill="url(#paint0_linear_36_89)"/>
<path d="M54.3691 103.613C56.1846 104.4 57.8556 105.01 59.3819 105.428C60.8761 105.845 62.2096 106.054 63.3825 106.054C66.7725 106.054 69.1985 104.93 70.6445 102.698C72.1066 100.466 72.8296 96.6929 72.8296 91.346V46.8524H90.069V95.4084C90.069 103.678 87.9321 110.02 83.6745 114.388C79.4168 118.771 73.2634 120.939 65.2301 120.939C63.7038 120.939 62.1775 120.843 60.6833 120.634C59.1891 120.457 57.6146 120.152 56.0079 119.767L54.3691 103.613Z" fill="#FEFEFE"/>
<path d="M96.1742 84.2489C100.576 86.9464 104.336 88.8251 107.421 89.917C110.506 90.9928 113.51 91.5387 116.45 91.5387C119.406 91.5387 121.8 90.8804 123.6 89.5798C125.399 88.2792 126.283 86.6092 126.283 84.57C126.283 81.6477 123.102 78.3239 116.691 74.679C115.663 74.0849 114.86 73.6192 114.313 73.2981L109.461 70.5684C104.738 67.8869 101.235 64.8682 98.9698 61.5123C96.6884 58.1404 95.5637 54.3349 95.5637 50.0798C95.5637 44.2993 97.7487 39.5625 102.103 35.8695C106.441 32.1603 112.08 30.3298 118.973 30.3298C121.527 30.3298 124.275 30.6349 127.231 31.229C130.203 31.8071 133.513 32.7384 137.144 33.9908V50.8024C133.674 48.6347 130.396 46.9648 127.279 45.7766C124.178 44.6044 121.543 44.0103 119.358 44.0103C116.948 44.0103 115.052 44.5402 113.671 45.5678C112.273 46.5955 111.582 48.0085 111.582 49.7908C111.582 51.0432 111.984 52.1993 112.819 53.2751C113.655 54.3831 114.876 55.3625 116.531 56.2617L124.949 60.9022C132.003 64.804 136.742 68.4007 139.168 71.6924C141.594 75.0001 142.815 78.9019 142.815 83.43C142.815 90.4308 140.438 96.0828 135.666 100.386C130.894 104.705 124.564 106.841 116.675 106.841C114.008 106.841 111.1 106.552 107.951 106.006C104.818 105.444 101.364 104.561 97.6041 103.389L96.1742 84.2489Z" fill="#FEFEFE"/>
<path d="M30.43 135.149H34.0932L32.2777 130.782L30.43 135.149ZM25.1923 139.581L32.3259 125.21H32.5347L39.4915 139.581H36.0051L35.1214 137.558H29.4499L28.5502 139.581H25.1923Z" fill="white"/>
<path d="M44.3115 128.181H43.7652V132.034H44.4721C45.3076 132.034 45.9503 131.874 46.4001 131.536C46.8339 131.199 47.0589 130.701 47.0589 130.075C47.0589 129.401 46.85 128.919 46.4162 128.63C45.9824 128.325 45.2915 128.181 44.3115 128.181ZM40.5358 139.581V125.644H44.1187C45.2755 125.644 46.1591 125.708 46.8018 125.868C47.4284 126.013 47.9907 126.27 48.4727 126.623C49.0029 126.992 49.4046 127.458 49.6938 128.004C49.9669 128.55 50.1115 129.128 50.1115 129.738C50.1115 130.605 49.8866 131.376 49.4528 132.034C49.0029 132.709 48.3602 133.222 47.5087 133.592L51.7664 139.581H47.9747L44.2472 134.106H43.7652V139.581H40.5358Z" fill="white"/>
<path d="M55.9276 139.581V128.55H51.4932V125.644H63.6877V128.55H59.2694V139.581H55.9276Z" fill="white"/>
<path d="M65.2783 139.581V125.644H73.8739V128.518H68.5077V131.039H73.1027V133.897H68.5077V136.659H73.9542V139.581H65.2783Z" fill="white"/>
<path d="M75.8661 135.647C76.7177 136.177 77.4407 136.53 78.0512 136.755C78.6456 136.964 79.2401 137.06 79.8024 137.06C80.3808 137.06 80.8468 136.932 81.2002 136.691C81.5376 136.434 81.7144 136.113 81.7144 135.711C81.7144 135.133 81.0878 134.491 79.8506 133.784C79.6418 133.672 79.4972 133.576 79.3847 133.511L78.4368 132.982C77.521 132.468 76.8462 131.874 76.4124 131.231C75.9625 130.573 75.7376 129.834 75.7376 128.999C75.7376 127.875 76.1714 126.96 77.0229 126.238C77.8584 125.531 78.9509 125.162 80.3005 125.162C80.7825 125.162 81.3288 125.226 81.9071 125.338C82.4855 125.451 83.1121 125.627 83.8191 125.884V129.144C83.1443 128.726 82.5177 128.405 81.9071 128.164C81.3127 127.94 80.7986 127.827 80.3648 127.827C79.8988 127.827 79.5293 127.924 79.2562 128.132C78.9991 128.325 78.8545 128.598 78.8545 128.951C78.8545 129.192 78.9348 129.417 79.0955 129.626C79.2562 129.834 79.4972 130.027 79.8185 130.204L81.4573 131.103C82.8229 131.874 83.7387 132.564 84.2207 133.206C84.6867 133.849 84.9277 134.603 84.9277 135.486C84.9277 136.851 84.4617 137.943 83.5459 138.778C82.6141 139.629 81.377 140.047 79.8506 140.047C79.3204 140.047 78.7581 139.982 78.1476 139.87C77.5371 139.774 76.8783 139.597 76.1393 139.372L75.8661 135.647Z" fill="white"/>
<path d="M97.7969 140.111H97.572L90.9847 125.644H94.5033L97.7969 133.271L101.123 125.644H104.384L97.7969 140.111Z" fill="white"/>
<path d="M105.541 139.581V125.644H108.867V139.581H105.541Z" fill="white"/>
<path d="M111.502 135.647C112.353 136.177 113.076 136.53 113.687 136.755C114.281 136.964 114.86 137.06 115.438 137.06C116.016 137.06 116.466 136.932 116.82 136.691C117.173 136.434 117.35 136.113 117.35 135.711C117.35 135.133 116.723 134.491 115.486 133.784C115.277 133.672 115.133 133.576 115.02 133.511L114.072 132.982C113.157 132.468 112.482 131.874 112.032 131.231C111.598 130.573 111.373 129.834 111.373 128.999C111.373 127.875 111.807 126.96 112.642 126.238C113.494 125.531 114.586 125.162 115.92 125.162C116.418 125.162 116.964 125.226 117.527 125.338C118.105 125.451 118.748 125.627 119.455 125.884V129.144C118.78 128.726 118.153 128.405 117.543 128.164C116.932 127.94 116.418 127.827 116 127.827C115.534 127.827 115.165 127.924 114.892 128.132C114.619 128.325 114.49 128.598 114.49 128.951C114.49 129.192 114.57 129.417 114.731 129.626C114.892 129.834 115.133 130.027 115.454 130.204L117.093 131.103C118.458 131.874 119.374 132.564 119.856 133.206C120.322 133.849 120.563 134.603 120.563 135.486C120.563 136.851 120.097 137.943 119.165 138.778C118.234 139.629 117.013 140.047 115.486 140.047C114.956 140.047 114.394 139.982 113.783 139.87C113.173 139.774 112.498 139.597 111.775 139.372L111.502 135.647Z" fill="white"/>
<path d="M126.138 125.644V133.303C126.138 134.539 126.363 135.454 126.813 136.064C127.263 136.675 127.954 136.98 128.87 136.98C129.753 136.98 130.428 136.707 130.894 136.129C131.36 135.567 131.601 134.732 131.601 133.64V125.644H134.573V133.64C134.573 135.647 134.059 137.221 133.015 138.345C131.987 139.485 130.557 140.047 128.725 140.047C126.861 140.047 125.415 139.485 124.387 138.361C123.359 137.253 122.845 135.679 122.845 133.656V125.644H126.138Z" fill="white"/>
<path d="M140.325 135.149H143.988L142.173 130.782L140.325 135.149ZM135.103 139.581L142.221 125.21H142.43L149.387 139.581H145.9L145.016 137.558H139.361L138.445 139.581H135.103Z" fill="white"/>
<path d="M150.479 139.581V125.644H153.805V139.581H150.479Z" fill="white"/>
<path d="M156.424 135.647C157.291 136.177 158.014 136.53 158.609 136.755C159.219 136.964 159.798 137.06 160.376 137.06C160.938 137.06 161.404 136.932 161.758 136.691C162.111 136.434 162.288 136.113 162.288 135.711C162.288 135.133 161.661 134.491 160.408 133.784C160.215 133.672 160.055 133.576 159.958 133.511L159.01 132.982C158.095 132.468 157.404 131.874 156.97 131.231C156.52 130.573 156.311 129.834 156.311 128.999C156.311 127.875 156.729 126.96 157.58 126.238C158.416 125.531 159.525 125.162 160.858 125.162C161.356 125.162 161.886 125.226 162.465 125.338C163.043 125.451 163.686 125.627 164.393 125.884V129.144C163.718 128.726 163.075 128.405 162.481 128.164C161.87 127.94 161.356 127.827 160.938 127.827C160.456 127.827 160.103 127.924 159.83 128.132C159.557 128.325 159.428 128.598 159.428 128.951C159.428 129.192 159.508 129.417 159.669 129.626C159.83 129.834 160.071 130.027 160.392 130.204L162.015 131.103C163.397 131.874 164.312 132.564 164.778 133.206C165.26 133.849 165.501 134.603 165.501 135.486C165.501 136.851 165.035 137.943 164.103 138.778C163.172 139.629 161.951 140.047 160.408 140.047C159.894 140.047 159.332 139.982 158.721 139.87C158.111 139.774 157.436 139.597 156.713 139.372L156.424 135.647Z" fill="white"/>
</g>
<defs>
<linearGradient id="paint0_linear_36_89" x1="-2.10472" y1="126.43" x2="154.694" y2="88.027" gradientUnits="userSpaceOnUse">
<stop stop-color="#377BFF"/>
<stop offset="1" stop-color="#B000BF"/>
</linearGradient>
<clipPath id="clip0_36_89">
<rect width="199" height="168" fill="white"/>
</clipPath>
</defs>
</svg>
