<?xml version="1.0" encoding="UTF-8"?>
<!DOCTYPE svg PUBLIC "-//W3C//DTD SVG 1.1//EN" "http://www.w3.org/Graphics/SVG/1.1/DTD/svg11.dtd">
<!-- Creator: CorelDRAW -->
<svg xmlns="http://www.w3.org/2000/svg" xml:space="preserve" width="903px" height="613px" version="1.1" style="shape-rendering:geometricPrecision; text-rendering:geometricPrecision; image-rendering:optimizeQuality; fill-rule:evenodd; clip-rule:evenodd"
viewBox="0 0 185.05 125.53"
 xmlns:xlink="http://www.w3.org/1999/xlink"
 xmlns:xodm="http://www.corel.com/coreldraw/odm/2003">
 <defs>
  <style type="text/css">
   <![CDATA[
    .fil0 {fill:white}
   ]]>
  </style>
 </defs>
 <g id="Camada_x0020_1">
  <metadata id="CorelCorpID_0Corel-Layer"/>
  <g id="_1908008924016">
   <path class="fil0" d="M12.01 93.74c3.91,-6.06 0.33,-6.58 2.27,-13.81 11.74,-2.95 1.03,14.87 8.79,17.7 6.83,2.48 4.9,-16.91 3.21,-20.82 -2.01,-4.67 -13.61,-8.56 -18.27,-0.85 -3.05,5.03 -5.59,18.85 4,17.78z"/>
   <path class="fil0" d="M46.63 62.59c-2.23,-3.37 -5.07,-3.86 -8.08,-0.83 -3.11,6.17 -1.38,15.72 5.17,17.99 9.68,3.37 13.77,-7.03 19.56,-4.86 2.25,1.94 0.72,3.47 2.58,4.89 4.48,3.42 10.15,-5.91 1.97,-11.22 -9.02,-5.84 -17.23,9.88 -22.18,3.67 -1.13,-2.77 1.71,-5.01 0.98,-9.64z"/>
   <path class="fil0" d="M70.7 34.21c0.94,-2.29 1.36,-3.5 0.81,-6.46 -0.96,-2.59 -1.59,-4.78 -3.26,-6.31 -1.33,-1.21 -5.02,-2.67 -7.68,-2.17 -4.2,0.8 -6.87,8.93 -11.57,5.67 -0.96,-2.36 1.24,-4.57 -0.46,-6.42 -1.65,-1.79 -4.1,-1.49 -5.36,0.14 -3.75,4.9 -4.31,7.78 -1.05,12.25 1.63,2.25 2.37,2.78 5.94,2.92 5.9,0.22 6.38,-2.22 8.99,-4.02 0.57,-0.4 2.21,-1.51 2.52,-1.63 2.64,-1.04 4.13,0.59 4.99,2.33 -0.23,2.37 -2.41,2.18 -0.91,5.17 3.23,3.93 5.82,-0.72 7.04,-1.47z"/>
   <path class="fil0" d="M72.29 92.77c-0.75,-0.93 -1.62,-2.91 -1.95,-3.83 -0.63,-0.17 -7.7,-6.03 -13.81,-1.9 -13.17,8.88 -1.89,19.9 7.95,17.65 9.19,-2.11 7.19,-7.56 7.81,-11.92z"/>
   <path class="fil0" d="M78.51 61.09c0.12,-0.24 0.64,-1.29 0.66,-1.32 0.69,-1.12 0.38,-0.59 0.98,-1.15 -0.43,-3.72 0.33,-4.41 -1.24,-8.09 -3.72,-8.7 4.55,-11.35 11.1,-5.56 1.31,1.16 1.02,1.56 2.45,2.45l0 -8.39c-3.25,-2.37 -2.89,-4.4 -8.79,-5.79l-5.54 0.06c-1.08,0.87 -1.55,1.03 -2.87,1.15 -0.83,1.3 -1.13,1.17 -2.07,2.37 -5.35,6.12 0.81,14.11 -0.34,17.46 -0.44,1.28 -1.49,2.15 -1.9,3.78 -0.37,1.48 -0.29,3.48 0.52,4.54 2.18,2.84 5.79,-0.13 7.04,-1.51z"/>
   <path class="fil0" d="M0 49.73l0 6.59c2.38,-1.74 5.42,-3.87 9.2,-0.78 3.51,2.88 2.27,4.74 4.48,8.43 4.08,6.79 16.61,6.18 16.74,0.74 0.04,-1.56 -1.64,-3.36 -2.42,-3.96 -1.55,-1.19 -3.12,-1.03 -5.08,-1.33 -5.54,-0.84 -3.67,-3.14 -6.29,-6.7 -4.85,-6.6 -8.76,-7.29 -16.63,-2.99z"/>
   <path class="fil0" d="M24.12 0l-7.35 0c-0.85,4.44 -2.64,11.27 0.51,14.61 2.65,2.81 8.85,2.97 11.07,5.56 0.91,2.31 -2.76,8.86 2.12,8.81 1.17,-0.02 3.71,-1.66 4.22,-2.15 3.39,-3.22 1.38,-13.6 -7.54,-15.1 -6.19,-1.05 -4.33,-3.73 -3.03,-11.73z"/>
   <path class="fil0" d="M57.23 55.44c-2.31,0.34 -4.43,-0.29 -4.51,2.36 -0.07,2.07 1.54,3.29 3.32,3.64 4.27,0.83 7.38,-2.85 8.33,-5.84 3.89,-12.25 -13.32,-22.91 -20.36,-12.53 -1.01,1.49 -1.85,3.16 -1.32,5.31 0.4,1.6 2.35,3.26 4.76,2.41 2.05,-0.72 3.34,-7.3 7.64,-4.69 0.98,0.6 2.4,2.51 3.04,3.98 0.96,2.22 -0.34,3.44 -0.9,5.36z"/>
   <path class="fil0" d="M15.17 28.7c4.51,-1.04 2.88,-6.76 -0.06,-7.21l-2.86 -0.03c-0.64,1.31 -5.26,-8.28 -3.31,-21.46l-5.91 0c-0.13,5.31 -1.02,9.38 -0.68,15.26 0.08,1.52 0.36,6.33 0.77,7.51 0.76,2.21 2.81,3.35 3.35,4.5 2.92,1.06 5.31,1.79 8.7,1.43z"/>
   <path class="fil0" d="M42.51 89.41l0.01 -3.88c-0.17,-0.08 -3.6,-3.57 -6.33,1.02 -2.6,4.36 -1,13.34 0.58,17.67 0.52,1.41 1.07,2.29 1.86,3.68l1.87 3.5c2.08,1.23 3.38,2.76 7.11,2.81 6.47,-3.53 -0.21,-7.13 -2.56,-10.41 -2.99,-4.18 -4.19,-8.71 -2.54,-14.39z"/>
   <path class="fil0" d="M92.46 72.88l0 -7.08c-5.32,-2.41 -10.05,-1.26 -11.95,3.14 -2.56,5.92 0.73,10.66 -0.19,15.57l-2.94 1.07c-0.07,0.02 -0.23,0.09 -0.28,0.11 -0.05,0.02 -0.17,0.07 -0.27,0.1 -1.12,3.97 0.31,5.51 4.64,5.3 3.65,-0.57 5.83,-3.17 6.4,-6.98 0.55,-3.67 -3.13,-9.06 -0.83,-11.83 1.79,-2.22 3.64,-0.24 5.42,0.6z"/>
   <path class="fil0" d="M30.08 49.16c3.5,-1.15 7.59,-5.75 5.64,-10.44 -1.27,-3.03 -5.91,-6.84 -10.32,-5.46 -3.1,0.98 -7.35,5.66 -5.61,10.29 1.07,2.87 6.01,7.02 10.29,5.61z"/>
   <path class="fil0" d="M66.45 0l-7.05 0c-1.4,3.76 -6.39,7.34 -11.27,4.75 -2.81,-0.71 -4.89,-2.27 -5.75,-4.75l-7.48 0c1.51,6.7 7.96,11.85 15.95,11.93 4.44,0.05 7.63,-1.45 9.98,-3.81 1.61,-1.63 5,-5.83 5.62,-8.12z"/>
   <path class="fil0" d="M92.46 104.64l0 -5.23c-5.93,-0.43 -9.01,1.18 -11.75,4.41 -3.47,4.1 -3.08,7.5 -1.32,12.68l5.08 0c-0.42,-7.11 2.1,-10.31 7.99,-11.86z"/>
   <path class="fil0" d="M26.07 116.5l6.26 0c-5.18,-14.03 -24.75,-18.54 -21.33,-10.1 0.88,2.18 3.49,1.9 5.84,2.55 2,0.55 3.61,1.99 5.23,3.05 1.74,1.13 3.26,2.2 4,4.5z"/>
   <path class="fil0" d="M92.46 22.41c-3.61,-1.65 -4.58,-2.38 -9.74,-2.15 -4.14,0.18 -5.5,1.73 -5.32,5.8 0.62,0.93 0.65,1.13 1.79,1.57 5.01,-0.36 9.37,-0.42 13.27,1.75l0 -6.97z"/>
   <path class="fil0" d="M77.57 2.3l-0.08 -0.71 0.03 -1.59 -5.44 0c0.11,4.99 -1.31,14.79 1.76,17.49 3.27,-0.01 3.51,-2.71 3.67,-5.95 0.15,-3.01 0.04,-6.21 0.06,-9.24z"/>
   <path class="fil0" d="M92.46 104.64c-5.89,1.55 -8.41,4.75 -7.99,11.86l7.99 0 0 -11.86z"/>
   <path class="fil0" d="M0 96.34l0 20.16 6.52 0c-0.79,-0.77 -9.32,-6.6 -3.94,-12.68 1.09,-1.23 3.98,-3.13 3.69,-5.71 -0.37,-3.29 -3.94,-3.2 -6.27,-1.77z"/>
   <path class="fil0" d="M38.55 61.76c3.01,-3.03 5.85,-2.54 8.08,0.83l1.32 -0.68c0.29,-2.31 0.71,-2.94 -0.85,-4.97 -1.85,-2.4 -4.74,-2.76 -7.1,-1.25l-0.84 0.6c-2.52,2.04 -1.6,4.55 -0.61,5.47z"/>
   <path class="fil0" d="M7.94 37.91c-0.03,-2.28 -0.08,-2.73 -1.96,-4.13l-1.48 -1.09 -4.5 0.27 0 6.81c3.97,0.41 5.94,1.76 7.94,-1.86z"/>
   <path class="fil0" d="M58.3 92.9c-0.61,6.42 6.68,6.53 7.96,4.3 0.86,-1.5 -0.48,-4.16 -1.93,-4.83 -2.74,-1.27 -4.13,-0.39 -6.03,0.53z"/>
   <path class="fil0" d="M68.92 116.5l5.94 0c0.39,-2.82 0.9,-6.44 -2.33,-6.72 -3.47,-0.31 -3.6,3.68 -3.61,6.72z"/>
   <path class="fil0" d="M47.61 114.21c-3.73,-0.05 -5.03,-1.58 -7.11,-2.81 -1.94,0.94 -2.51,3.09 -2.75,5.1l10.64 0 -0.78 -2.29z"/>
   <path class="fil0" d="M55.73 116.5l6.29 0c0.22,-1.48 0.88,-3.23 -0.24,-4.46 -0.27,-0.3 -4,-2.76 -5.53,1.09 -0.61,1.55 -0.54,1.76 -0.52,3.37z"/>
   <path class="fil0" d="M42.52 85.53l-0.01 3.88c0.06,0.02 7.13,1.47 7.19,-1.63 0.06,-3.46 -4.3,-0.82 -7.18,-2.25z"/>
   <path class="fil0" d="M29.7 43.53c1.91,-1.43 -1.38,-6.54 -3.72,-4.66 -3.06,2.44 1.15,6.57 3.72,4.66z"/>
   <path class="fil0" d="M78.13 33.3l-0.93 -0.88c0.39,-1.8 0.18,-4.6 -2.11,-3.47 -0.11,0.05 -0.41,0.25 -0.5,0.32l-1.64 2.37c-0.03,0.15 -0.14,0.17 -0.21,0.26 2.06,0.81 0.05,-0.36 1.12,1.67 0.52,1 -0.15,1.5 1.4,0.88 1.32,-0.12 1.79,-0.28 2.87,-1.15z"/>
   <path class="fil0" d="M92.46 51.26c-4.68,1.43 -2.52,3.25 -2.77,6l2.77 1.17 0 -7.17z"/>
   <path class="fil0" d="M0 64.87l0 5.92c1.56,-0.54 2.72,-0.98 2.56,-2.77 -0.16,-1.86 -1.25,-2.56 -2.56,-3.15z"/>
   <g>
    <path class="fil0" d="M173.03 93.75c-3.9,-6.06 -0.32,-6.58 -2.26,-13.81 -11.75,-2.95 -1.03,14.87 -8.8,17.7 -6.83,2.48 -4.89,-16.91 -3.2,-20.82 2.01,-4.67 13.61,-8.56 18.27,-0.85 3.04,5.03 5.59,18.85 -4.01,17.78z"/>
    <path class="fil0" d="M138.41 62.6c2.24,-3.37 5.07,-3.86 8.09,-0.83 3.1,6.17 1.37,15.72 -5.17,17.99 -9.68,3.38 -13.77,-7.03 -19.56,-4.86 -2.25,1.95 -0.72,3.47 -2.59,4.89 -4.47,3.42 -10.14,-5.91 -1.96,-11.22 9.01,-5.84 17.23,9.88 22.17,3.67 1.14,-2.77 -1.7,-5.01 -0.98,-9.64z"/>
    <path class="fil0" d="M114.34 34.22c-0.93,-2.29 -1.35,-3.5 -0.81,-6.46 0.97,-2.59 1.6,-4.78 3.26,-6.31 1.33,-1.21 5.02,-2.67 7.68,-2.17 4.2,0.8 6.88,8.93 11.57,5.67 0.97,-2.36 -1.23,-4.57 0.47,-6.42 1.65,-1.79 4.1,-1.49 5.35,0.15 3.76,4.89 4.32,7.77 1.06,12.24 -1.64,2.25 -2.37,2.78 -5.94,2.92 -5.9,0.22 -6.38,-2.22 -9,-4.02 -0.57,-0.4 -2.21,-1.51 -2.52,-1.63 -2.63,-1.04 -4.13,0.59 -4.99,2.33 0.24,2.38 2.42,2.18 0.92,5.17 -3.23,3.93 -5.82,-0.72 -7.05,-1.47z"/>
    <path class="fil0" d="M112.75 92.78c0.75,-0.93 1.63,-2.91 1.95,-3.82 0.64,-0.18 7.7,-6.04 13.82,-1.91 13.16,8.89 1.88,19.9 -7.96,17.65 -9.18,-2.11 -7.19,-7.56 -7.81,-11.92z"/>
    <path class="fil0" d="M106.53 61.1c-0.12,-0.24 -0.64,-1.29 -0.65,-1.31 -0.7,-1.13 -0.39,-0.6 -0.98,-1.16 0.42,-3.72 -0.34,-4.41 1.23,-8.09 3.73,-8.7 -4.55,-11.35 -11.1,-5.56 -1.31,1.16 -1.02,1.56 -2.44,2.45l0 -8.39c3.24,-2.37 2.89,-4.4 8.78,-5.79l5.55 0.06c1.08,0.87 1.54,1.03 2.87,1.16 0.83,1.29 1.13,1.16 2.07,2.36 5.34,6.12 -0.81,14.11 0.34,17.46 0.44,1.28 1.49,2.15 1.89,3.78 0.37,1.48 0.3,3.48 -0.52,4.54 -2.17,2.84 -5.78,-0.12 -7.04,-1.51z"/>
    <path class="fil0" d="M185.05 49.74l0 6.59c-2.38,-1.74 -5.43,-3.87 -9.2,-0.78 -3.51,2.88 -2.28,4.74 -4.49,8.43 -4.07,6.79 -16.6,6.18 -16.73,0.74 -0.04,-1.56 1.64,-3.36 2.41,-3.96 1.56,-1.19 3.12,-1.03 5.09,-1.33 5.53,-0.84 3.67,-3.14 6.29,-6.7 4.85,-6.6 8.75,-7.28 16.63,-2.99z"/>
    <path class="fil0" d="M160.93 0.01l7.35 0c0.85,4.44 2.64,11.27 -0.51,14.61 -2.65,2.81 -8.85,2.97 -11.08,5.56 -0.91,2.31 2.77,8.86 -2.11,8.81 -1.18,-0.02 -3.71,-1.66 -4.23,-2.15 -3.39,-3.22 -1.37,-13.6 7.55,-15.1 6.19,-1.05 4.33,-3.73 3.03,-11.73z"/>
    <path class="fil0" d="M127.81 55.45c2.32,0.34 4.44,-0.29 4.52,2.36 0.06,2.07 -1.54,3.3 -3.33,3.64 -4.27,0.83 -7.37,-2.85 -8.33,-5.84 -3.89,-12.25 13.32,-22.91 20.36,-12.53 1.01,1.49 1.86,3.16 1.32,5.31 -0.39,1.6 -2.34,3.26 -4.76,2.41 -2.05,-0.72 -3.33,-7.3 -7.63,-4.69 -0.98,0.6 -2.4,2.51 -3.04,3.98 -0.96,2.22 0.34,3.44 0.89,5.36z"/>
    <path class="fil0" d="M169.87 28.71c-4.51,-1.04 -2.87,-6.75 0.06,-7.21l2.87 -0.03c0.64,1.31 5.26,-8.28 3.3,-21.46l5.92 0c0.12,5.31 1.01,9.38 0.68,15.26 -0.09,1.52 -0.37,6.33 -0.77,7.51 -0.77,2.21 -2.82,3.35 -3.36,4.5 -2.92,1.06 -5.3,1.79 -8.7,1.43z"/>
    <path class="fil0" d="M142.53 89.42l0 -3.88c0.17,-0.08 3.59,-3.57 6.33,1.02 2.59,4.36 1,13.34 -0.59,17.67 -0.51,1.41 -1.06,2.29 -1.86,3.68l-1.86 3.5c-2.09,1.23 -3.39,2.76 -7.12,2.81 -6.46,-3.53 0.21,-7.13 2.56,-10.41 2.99,-4.18 4.2,-8.71 2.54,-14.39z"/>
    <path class="fil0" d="M92.59 72.89l0 -7.08c5.31,-2.41 10.04,-1.26 11.95,3.14 2.55,5.92 -0.74,10.66 0.18,15.57l2.95 1.07c0.06,0.02 0.22,0.09 0.27,0.11 0.05,0.02 0.18,0.07 0.27,0.1 1.13,3.97 -0.3,5.51 -4.64,5.3 -3.65,-0.57 -5.83,-3.17 -6.39,-6.98 -0.55,-3.67 3.13,-9.06 0.83,-11.83 -1.79,-2.22 -3.65,-0.24 -5.42,0.6z"/>
    <path class="fil0" d="M154.97 49.17c-3.51,-1.15 -7.6,-5.75 -5.64,-10.44 1.27,-3.03 5.91,-6.84 10.31,-5.46 3.11,0.98 7.36,5.66 5.62,10.29 -1.07,2.87 -6.02,7.02 -10.29,5.61z"/>
    <path class="fil0" d="M118.59 0.01l7.05 0c1.4,3.76 6.39,7.34 11.28,4.75 2.81,-0.71 4.89,-2.27 5.74,-4.75l7.48 0c-1.51,6.7 -7.95,11.85 -15.94,11.93 -4.44,0.05 -7.64,-1.44 -9.98,-3.81 -1.61,-1.62 -5.01,-5.83 -5.63,-8.12z"/>
    <path class="fil0" d="M92.59 104.65l0 -5.23c5.93,-0.43 9.01,1.18 11.75,4.41 3.47,4.1 3.08,7.5 1.32,12.68l-5.09 0c0.43,-7.11 -2.09,-10.31 -7.98,-11.86z"/>
    <path class="fil0" d="M158.98 116.51l-6.26 0c5.17,-14.03 24.75,-18.54 21.32,-10.1 -0.88,2.18 -3.49,1.9 -5.83,2.55 -2.01,0.55 -3.61,2 -5.24,3.05 -1.73,1.13 -3.25,2.2 -3.99,4.5z"/>
    <path class="fil0" d="M92.59 22.42c3.61,-1.65 4.58,-2.38 9.73,-2.15 4.14,0.18 5.5,1.73 5.33,5.8 -0.63,0.93 -0.65,1.13 -1.8,1.57 -5,-0.36 -9.36,-0.42 -13.26,1.75l0 -6.97z"/>
    <path class="fil0" d="M107.47 2.31l0.08 -0.71 -0.02 -1.59 5.43 0c-0.1,4.99 1.31,14.79 -1.75,17.49 -3.27,0 -3.52,-2.71 -3.68,-5.95 -0.15,-3.01 -0.03,-6.21 -0.06,-9.24z"/>
    <path class="fil0" d="M92.59 104.65c5.89,1.55 8.41,4.75 7.98,11.86l-7.98 0 0 -11.86z"/>
    <path class="fil0" d="M185.05 96.35l0 20.16 -6.53 0c0.8,-0.77 9.33,-6.6 3.94,-12.68 -1.09,-1.23 -3.98,-3.13 -3.68,-5.71 0.37,-3.29 3.93,-3.2 6.27,-1.77z"/>
    <path class="fil0" d="M109.79 34.47c1.55,0.61 0.88,0.11 1.4,-0.89 1.07,-2.03 -0.94,-0.86 1.12,-1.67 -0.07,-0.09 -0.18,-0.1 -0.21,-0.25l-1.65 -2.38c-0.09,-0.07 -0.39,-0.27 -0.49,-0.32 -2.29,-1.13 -2.5,1.67 -2.12,3.47l-0.92 0.88 -5.55 -0.06c0.43,-0.34 0.1,-0.88 3.07,-0.88 -1.05,-0.6 -0.34,0.97 -0.34,-0.98 -0.01,-1.82 1.32,-2.73 1.75,-3.75 1.15,-0.44 1.17,-0.64 1.8,-1.57 0.09,0.05 0.23,0.09 0.29,0.11 3.59,1.08 0.13,-0.64 5.59,1.58 -0.54,2.96 -0.12,4.17 0.81,6.46 -0.36,1.87 0.24,0.55 -0.69,1.54 -1.51,1.59 -0.51,0.64 -1.79,1.07 -0.94,-1.2 -1.24,-1.07 -2.07,-2.36z"/>
    <path class="fil0" d="M146.5 61.77c-3.02,-3.03 -5.85,-2.54 -8.09,0.83l-1.32 -0.68c-0.29,-2.31 -0.71,-2.94 0.86,-4.97 1.85,-2.39 4.74,-2.76 7.1,-1.25l0.84 0.6c2.51,2.04 1.59,4.55 0.61,5.47z"/>
    <path class="fil0" d="M177.11 37.92c0.02,-2.28 0.08,-2.73 1.95,-4.13l1.48 -1.09 4.51 0.27 0 6.81c-3.97,0.41 -5.95,1.76 -7.94,-1.86z"/>
    <path class="fil0" d="M140.36 119.9l12.1 0c-0.79,1.99 -1.17,2.38 -0.83,4.75 -4.88,2.59 -9.87,-0.99 -11.27,-4.75z"/>
    <path class="fil0" d="M125.64 0.01l12.1 0c-0.79,1.99 -1.16,2.38 -0.82,4.75 -4.89,2.59 -9.88,-0.99 -11.28,-4.75z"/>
    <path class="fil0" d="M126.75 92.91c0.6,6.42 -6.69,6.53 -7.97,4.3 -0.86,-1.5 0.49,-4.16 1.94,-4.83 2.74,-1.27 4.13,-0.39 6.03,0.53z"/>
    <path class="fil0" d="M116.12 116.51l-5.94 0c-0.38,-2.82 -0.89,-6.44 2.33,-6.72 3.47,-0.31 3.61,3.69 3.61,6.72z"/>
    <path class="fil0" d="M137.43 114.22c3.73,-0.05 5.03,-1.58 7.12,-2.81 1.93,0.94 2.5,3.09 2.75,5.1l-10.64 0 0.77 -2.29z"/>
    <path class="fil0" d="M129.32 116.51l-6.3 0c-0.22,-1.48 -0.88,-3.23 0.24,-4.46 0.27,-0.3 4.01,-2.76 5.53,1.09 0.62,1.55 0.54,1.76 0.53,3.37z"/>
    <path class="fil0" d="M142.53 85.54l0 3.88c-0.05,0.02 -7.12,1.47 -7.18,-1.63 -0.07,-3.46 4.29,-0.81 7.18,-2.25z"/>
    <path class="fil0" d="M155.35 43.54c-1.92,-1.43 1.38,-6.54 3.72,-4.66 3.05,2.44 -1.16,6.57 -3.72,4.66z"/>
    <path class="fil0" d="M106.92 33.31l0.92 -0.88c-0.38,-1.8 -0.17,-4.6 2.12,-3.47 0.1,0.05 0.4,0.25 0.49,0.32l1.65 2.38c0.03,0.15 0.14,0.16 0.21,0.25 -2.06,0.81 -0.05,-0.36 -1.12,1.67 -0.52,1 0.15,1.5 -1.4,0.89 -1.33,-0.13 -1.79,-0.29 -2.87,-1.16z"/>
    <path class="fil0" d="M152.46 119.9l4.92 0c-0.86,2.49 -2.93,4.04 -5.75,4.75 -0.34,-2.37 0.04,-2.76 0.83,-4.75z"/>
    <path class="fil0" d="M137.74 0.01l4.92 0c-0.85,2.48 -2.93,4.04 -5.74,4.75 -0.34,-2.37 0.03,-2.76 0.82,-4.75z"/>
    <path class="fil0" d="M92.59 51.27c4.68,1.43 2.52,3.25 2.77,6.01l-2.77 1.17 0 -7.18z"/>
    <path class="fil0" d="M171.96 121.82c-0.09,0.05 -0.25,0.21 -0.3,0.13l-2.07 0.96c2.91,-0.11 2.21,0.34 2.61,0.69 -0.53,0.83 -0.63,1.49 -2.08,1.61 -3.44,0.3 -2.63,-5.43 1.84,-3.39z"/>
    <path class="fil0" d="M157.24 1.93c-0.09,0.05 -0.25,0.21 -0.29,0.12l-2.08 0.97c2.91,-0.11 2.21,0.33 2.61,0.69 -0.53,0.83 -0.63,1.48 -2.08,1.61 -3.43,0.29 -2.63,-5.43 1.84,-3.39z"/>
    <path class="fil0" d="M122.27 121.5l-0.08 0.71 -1.43 -0.44c-0.01,1.38 0.22,1.61 0.46,2.55 -0.99,0.47 -1.73,0.77 -3.24,0.66 -0.36,-1.18 -0.62,-1.53 -0.19,-2.99 1.78,-0.84 2.1,-0.54 4.48,-0.49z"/>
    <path class="fil0" d="M107.55 1.6l-0.08 0.71 -1.43 -0.43c-0.01,1.37 0.23,1.61 0.46,2.55 -0.99,0.47 -1.73,0.77 -3.24,0.66 -0.36,-1.18 -0.61,-1.54 -0.18,-3 1.77,-0.83 2.09,-0.54 4.47,-0.49z"/>
    <path class="fil0" d="M185.05 64.88l0 5.92c-1.56,-0.54 -2.73,-0.98 -2.57,-2.77 0.17,-1.86 1.26,-2.56 2.57,-3.15z"/>
   </g>
  </g>
 </g>
</svg>
