<svg width="324" height="30" viewBox="0 0 324 30" fill="none" xmlns="http://www.w3.org/2000/svg">
<path d="M0.393127 10.3086H8.24469C9.33844 10.3086 10.2564 10.3789 10.9986 10.5195C11.7486 10.6602 12.3658 10.8477 12.8502 11.082C13.3423 11.3164 13.7173 11.5898 13.9752 11.9023C14.2408 12.207 14.4361 12.5312 14.5611 12.875C14.6861 13.2109 14.7564 13.5547 14.772 13.9062C14.7955 14.25 14.8072 14.5781 14.8072 14.8906V19.3555C14.8072 19.668 14.7955 20 14.772 20.3516C14.7564 20.6953 14.6861 21.0352 14.5611 21.3711C14.4361 21.707 14.2408 22.0312 13.9752 22.3438C13.7173 22.6562 13.3423 22.9297 12.8502 23.1641C12.3658 23.3984 11.7486 23.5859 10.9986 23.7266C10.2564 23.8672 9.33844 23.9375 8.24469 23.9375H6.21735V29H0.393127V10.3086ZM6.21735 21.3828H8.98297V13.0859H6.21735V21.3828ZM24.215 24.3945L23.7345 29H17.6994L20.6994 10.3086H30.7541L33.7541 29H27.6955L27.2384 24.3945H24.215ZM24.5197 22.2969H26.9338L25.715 13.0508L24.5197 22.2969ZM32.8166 6.6875L23.1369 9.32422L22.3166 6.92188L30.3556 0.324219L32.8166 6.6875ZM51.2713 20.9609V29H46.1736L45.6111 27.7812C45.4548 28.0938 45.24 28.3711 44.9666 28.6133C44.7322 28.8164 44.4158 29.0039 44.0173 29.1758C43.6267 29.3477 43.1306 29.4336 42.5291 29.4336C41.7869 29.4336 41.1306 29.3633 40.5603 29.2227C39.9978 29.082 39.5056 28.8906 39.0838 28.6484C38.6619 28.4062 38.3064 28.1289 38.0173 27.8164C37.7361 27.5039 37.5095 27.1758 37.3377 26.832C37.1658 26.4883 37.0408 26.1445 36.9627 25.8008C36.8923 25.4492 36.8572 25.1172 36.8572 24.8047V14.6211C36.8572 14.2852 36.8767 13.9336 36.9158 13.5664C36.9627 13.1992 37.0603 12.8398 37.2088 12.4883C37.365 12.1367 37.5955 11.8047 37.9002 11.4922C38.2127 11.1719 38.6306 10.8945 39.1541 10.6602C39.6853 10.418 40.3455 10.2266 41.1345 10.0859C41.9314 9.94531 42.8923 9.875 44.0173 9.875C45.1189 9.875 46.0603 9.94922 46.8416 10.0977C47.6306 10.2461 48.2908 10.4453 48.822 10.6953C49.3611 10.9375 49.7908 11.2227 50.1111 11.5508C50.4392 11.8711 50.6853 12.207 50.8494 12.5586C51.0213 12.9102 51.1345 13.2656 51.1892 13.625C51.2439 13.9766 51.2713 14.3086 51.2713 14.6211V18.3477H45.447V13.0859H42.6814V26.2227H46.4548V23.668H44.7673V20.9609H51.2713ZM61.5814 10.3086V29H55.7572V10.3086H61.5814ZM74.6923 29L70.1806 20.668V29H65.3525V10.3086H70.6728L75.4541 19.2266V10.3086H80.1298V29H74.6923ZM90.5338 24.3945L90.0533 29H84.0181L87.0181 10.3086H97.0728L100.073 29H94.0142L93.5572 24.3945H90.5338ZM90.8384 22.2969H93.2525L92.0338 13.0508L90.8384 22.2969ZM109.024 15.7812C109.024 16.0312 109.145 16.2305 109.387 16.3789C109.637 16.5273 109.961 16.6602 110.36 16.7773C110.766 16.8867 111.227 16.9961 111.742 17.1055C112.258 17.2148 112.781 17.3555 113.313 17.5273C113.852 17.6914 114.379 17.9062 114.895 18.1719C115.41 18.4297 115.867 18.7695 116.266 19.1914C116.672 19.6055 116.996 20.1172 117.238 20.7266C117.488 21.3359 117.613 22.0703 117.613 22.9297C117.613 23.5469 117.598 24.1367 117.567 24.6992C117.535 25.2617 117.449 25.7852 117.309 26.2695C117.168 26.7461 116.949 27.1797 116.653 27.5703C116.356 27.9609 115.938 28.2969 115.399 28.5781C114.867 28.8516 114.195 29.0625 113.383 29.2109C112.57 29.3594 111.578 29.4336 110.406 29.4336C109.367 29.4336 108.457 29.3789 107.676 29.2695C106.903 29.168 106.238 29.0078 105.684 28.7891C105.129 28.5703 104.672 28.293 104.313 27.957C103.961 27.6133 103.68 27.2109 103.469 26.75C103.266 26.2891 103.125 25.7617 103.047 25.168C102.969 24.5742 102.93 23.9141 102.93 23.1875H109.024V26.2227H111.789V22.7539C111.789 22.5273 111.664 22.3398 111.414 22.1914C111.172 22.043 110.848 21.9102 110.442 21.793C110.043 21.668 109.586 21.5469 109.07 21.4297C108.555 21.3125 108.028 21.1719 107.488 21.0078C106.957 20.8438 106.434 20.6445 105.918 20.4102C105.403 20.1758 104.942 19.8867 104.535 19.543C104.137 19.1914 103.813 18.7734 103.563 18.2891C103.32 17.7969 103.199 17.2109 103.199 16.5312C103.199 15.6875 103.242 14.9375 103.328 14.2812C103.414 13.6172 103.563 13.0391 103.774 12.5469C103.985 12.0547 104.27 11.6406 104.629 11.3047C104.988 10.9609 105.438 10.6836 105.977 10.4727C106.524 10.2617 107.168 10.1094 107.91 10.0156C108.66 9.92188 109.531 9.875 110.524 9.875C111.945 9.875 113.113 9.96875 114.028 10.1562C114.949 10.3438 115.676 10.6562 116.207 11.0938C116.738 11.5312 117.106 12.1055 117.309 12.8164C117.512 13.5273 117.613 14.3984 117.613 15.4297H111.789V13.0859H109.024V15.7812Z" fill="white"/>
<path d="M121.373 10.3086H129.224C130.318 10.3086 131.236 10.3789 131.978 10.5195C132.728 10.6602 133.345 10.8477 133.83 11.082C134.322 11.3164 134.697 11.5898 134.955 11.9023C135.22 12.207 135.416 12.5312 135.541 12.875C135.666 13.2109 135.736 13.5547 135.752 13.9062C135.775 14.25 135.787 14.5781 135.787 14.8906V19.3555C135.787 19.668 135.775 20 135.752 20.3516C135.736 20.6953 135.666 21.0352 135.541 21.3711C135.416 21.707 135.22 22.0312 134.955 22.3438C134.697 22.6562 134.322 22.9297 133.83 23.1641C133.345 23.3984 132.728 23.5859 131.978 23.7266C131.236 23.8672 130.318 23.9375 129.224 23.9375H127.197V29H121.373V10.3086ZM127.197 21.3828H129.963V13.0859H127.197V21.3828ZM148.417 21.3945H145.652V29H139.827V10.3086H147.433C148.566 10.3086 149.519 10.3828 150.292 10.5312C151.074 10.6719 151.714 10.8711 152.214 11.1289C152.722 11.3789 153.113 11.6797 153.386 12.0312C153.66 12.3828 153.859 12.7695 153.984 13.1914C154.109 13.6133 154.183 14.0625 154.206 14.5391C154.23 15.0156 154.242 15.5 154.242 15.9922C154.242 16.4531 154.21 16.9023 154.148 17.3398C154.093 17.7695 153.976 18.1602 153.796 18.5117C153.617 18.8633 153.359 19.1641 153.023 19.4141C152.695 19.6641 152.261 19.8359 151.722 19.9297C151.972 19.9531 152.242 20.0234 152.531 20.1406C152.827 20.25 153.101 20.4336 153.351 20.6914C153.609 20.9414 153.82 21.2773 153.984 21.6992C154.156 22.1211 154.242 22.6523 154.242 23.293V29H148.417V21.3945ZM145.652 18.6758H148.417V13.0859H145.652V18.6758ZM164.2 26.2227H166.966V13.0859H164.2V26.2227ZM165.501 29.457C164.368 29.457 163.403 29.3789 162.606 29.2227C161.81 29.0742 161.145 28.875 160.614 28.625C160.091 28.375 159.677 28.0859 159.372 27.7578C159.075 27.4297 158.853 27.0898 158.704 26.7383C158.556 26.3789 158.462 26.0195 158.423 25.6602C158.392 25.3008 158.376 24.9648 158.376 24.6523V14.6211C158.376 14.3086 158.392 13.9766 158.423 13.625C158.462 13.2656 158.556 12.9102 158.704 12.5586C158.853 12.207 159.075 11.8711 159.372 11.5508C159.677 11.2227 160.091 10.9375 160.614 10.6953C161.145 10.4453 161.806 10.2461 162.595 10.0977C163.392 9.94922 164.36 9.875 165.501 9.875C166.649 9.875 167.626 9.94922 168.431 10.0977C169.243 10.2461 169.919 10.4453 170.458 10.6953C170.997 10.9375 171.423 11.2227 171.735 11.5508C172.048 11.8711 172.282 12.207 172.438 12.5586C172.595 12.9102 172.692 13.2656 172.731 13.625C172.77 13.9766 172.79 14.3086 172.79 14.6211V24.6523C172.79 24.9648 172.77 25.3008 172.731 25.6602C172.692 26.0195 172.595 26.3789 172.438 26.7383C172.282 27.0898 172.048 27.4297 171.735 27.7578C171.423 28.0859 170.997 28.375 170.458 28.625C169.919 28.875 169.243 29.0742 168.431 29.2227C167.626 29.3789 166.649 29.457 165.501 29.457ZM186.628 10.3086V13.0859H183.006V17.8203H186.381V20.7383H183.006V29H177.182V10.3086H186.628ZM196.164 10.3086V29H190.34V10.3086H196.164ZM205.572 15.7812C205.572 16.0312 205.693 16.2305 205.935 16.3789C206.185 16.5273 206.51 16.6602 206.908 16.7773C207.314 16.8867 207.775 16.9961 208.291 17.1055C208.806 17.2148 209.33 17.3555 209.861 17.5273C210.4 17.6914 210.928 17.9062 211.443 18.1719C211.959 18.4297 212.416 18.7695 212.814 19.1914C213.22 19.6055 213.545 20.1172 213.787 20.7266C214.037 21.3359 214.162 22.0703 214.162 22.9297C214.162 23.5469 214.146 24.1367 214.115 24.6992C214.084 25.2617 213.998 25.7852 213.857 26.2695C213.717 26.7461 213.498 27.1797 213.201 27.5703C212.904 27.9609 212.486 28.2969 211.947 28.5781C211.416 28.8516 210.744 29.0625 209.931 29.2109C209.119 29.3594 208.127 29.4336 206.955 29.4336C205.916 29.4336 205.006 29.3789 204.224 29.2695C203.451 29.168 202.787 29.0078 202.232 28.7891C201.678 28.5703 201.22 28.293 200.861 27.957C200.51 27.6133 200.228 27.2109 200.017 26.75C199.814 26.2891 199.674 25.7617 199.595 25.168C199.517 24.5742 199.478 23.9141 199.478 23.1875H205.572V26.2227H208.338V22.7539C208.338 22.5273 208.213 22.3398 207.963 22.1914C207.72 22.043 207.396 21.9102 206.99 21.793C206.592 21.668 206.135 21.5469 205.619 21.4297C205.103 21.3125 204.576 21.1719 204.037 21.0078C203.506 20.8438 202.982 20.6445 202.467 20.4102C201.951 20.1758 201.49 19.8867 201.084 19.543C200.685 19.1914 200.361 18.7734 200.111 18.2891C199.869 17.7969 199.748 17.2109 199.748 16.5312C199.748 15.6875 199.791 14.9375 199.877 14.2812C199.963 13.6172 200.111 13.0391 200.322 12.5469C200.533 12.0547 200.818 11.6406 201.178 11.3047C201.537 10.9609 201.986 10.6836 202.525 10.4727C203.072 10.2617 203.717 10.1094 204.459 10.0156C205.209 9.92188 206.08 9.875 207.072 9.875C208.494 9.875 209.662 9.96875 210.576 10.1562C211.498 10.3438 212.224 10.6562 212.756 11.0938C213.287 11.5312 213.654 12.1055 213.857 12.8164C214.06 13.5273 214.162 14.3984 214.162 15.4297H208.338V13.0859H205.572V15.7812ZM223.558 15.7812C223.558 16.0312 223.679 16.2305 223.921 16.3789C224.171 16.5273 224.495 16.6602 224.894 16.7773C225.3 16.8867 225.761 16.9961 226.277 17.1055C226.792 17.2148 227.316 17.3555 227.847 17.5273C228.386 17.6914 228.913 17.9062 229.429 18.1719C229.945 18.4297 230.402 18.7695 230.8 19.1914C231.206 19.6055 231.531 20.1172 231.773 20.7266C232.023 21.3359 232.148 22.0703 232.148 22.9297C232.148 23.5469 232.132 24.1367 232.101 24.6992C232.07 25.2617 231.984 25.7852 231.843 26.2695C231.702 26.7461 231.484 27.1797 231.187 27.5703C230.89 27.9609 230.472 28.2969 229.933 28.5781C229.402 28.8516 228.73 29.0625 227.917 29.2109C227.105 29.3594 226.113 29.4336 224.941 29.4336C223.902 29.4336 222.992 29.3789 222.21 29.2695C221.437 29.168 220.773 29.0078 220.218 28.7891C219.663 28.5703 219.206 28.293 218.847 27.957C218.495 27.6133 218.214 27.2109 218.003 26.75C217.8 26.2891 217.66 25.7617 217.581 25.168C217.503 24.5742 217.464 23.9141 217.464 23.1875H223.558V26.2227H226.324V22.7539C226.324 22.5273 226.199 22.3398 225.949 22.1914C225.706 22.043 225.382 21.9102 224.976 21.793C224.577 21.668 224.12 21.5469 223.605 21.4297C223.089 21.3125 222.562 21.1719 222.023 21.0078C221.492 20.8438 220.968 20.6445 220.452 20.4102C219.937 20.1758 219.476 19.8867 219.07 19.543C218.671 19.1914 218.347 18.7734 218.097 18.2891C217.855 17.7969 217.734 17.2109 217.734 16.5312C217.734 15.6875 217.777 14.9375 217.863 14.2812C217.949 13.6172 218.097 13.0391 218.308 12.5469C218.519 12.0547 218.804 11.6406 219.163 11.3047C219.523 10.9609 219.972 10.6836 220.511 10.4727C221.058 10.2617 221.702 10.1094 222.445 10.0156C223.195 9.92188 224.066 9.875 225.058 9.875C226.48 9.875 227.648 9.96875 228.562 10.1562C229.484 10.3438 230.21 10.6562 230.742 11.0938C231.273 11.5312 231.64 12.1055 231.843 12.8164C232.046 13.5273 232.148 14.3984 232.148 15.4297H226.324V13.0859H223.558V15.7812ZM241.731 10.3086V29H235.907V10.3086H241.731ZM251.139 26.2227H253.905V13.0859H251.139V26.2227ZM252.44 29.457C251.307 29.457 250.342 29.3789 249.545 29.2227C248.749 29.0742 248.085 28.875 247.553 28.625C247.03 28.375 246.616 28.0859 246.311 27.7578C246.014 27.4297 245.792 27.0898 245.643 26.7383C245.495 26.3789 245.401 26.0195 245.362 25.6602C245.331 25.3008 245.315 24.9648 245.315 24.6523V14.6211C245.315 14.3086 245.331 13.9766 245.362 13.625C245.401 13.2656 245.495 12.9102 245.643 12.5586C245.792 12.207 246.014 11.8711 246.311 11.5508C246.616 11.2227 247.03 10.9375 247.553 10.6953C248.085 10.4453 248.745 10.2461 249.534 10.0977C250.331 9.94922 251.299 9.875 252.44 9.875C253.588 9.875 254.565 9.94922 255.37 10.0977C256.182 10.2461 256.858 10.4453 257.397 10.6953C257.936 10.9375 258.362 11.2227 258.674 11.5508C258.987 11.8711 259.221 12.207 259.378 12.5586C259.534 12.9102 259.631 13.2656 259.67 13.625C259.71 13.9766 259.729 14.3086 259.729 14.6211V24.6523C259.729 24.9648 259.71 25.3008 259.67 25.6602C259.631 26.0195 259.534 26.3789 259.378 26.7383C259.221 27.0898 258.987 27.4297 258.674 27.7578C258.362 28.0859 257.936 28.375 257.397 28.625C256.858 28.875 256.182 29.0742 255.37 29.2227C254.565 29.3789 253.588 29.457 252.44 29.457ZM270.581 29L266.069 20.668V29H261.241V10.3086H266.562L271.343 19.2266V10.3086H276.019V29H270.581ZM286.423 24.3945L285.942 29H279.907L282.907 10.3086H292.962L295.962 29H289.903L289.446 24.3945H286.423ZM286.727 22.2969H289.141L287.923 13.0508L286.727 22.2969ZM305.1 10.3086V29H299.276V10.3086H305.1ZM314.508 15.7812C314.508 16.0312 314.629 16.2305 314.871 16.3789C315.121 16.5273 315.445 16.6602 315.844 16.7773C316.25 16.8867 316.711 16.9961 317.226 17.1055C317.742 17.2148 318.265 17.3555 318.797 17.5273C319.336 17.6914 319.863 17.9062 320.379 18.1719C320.894 18.4297 321.351 18.7695 321.75 19.1914C322.156 19.6055 322.48 20.1172 322.723 20.7266C322.973 21.3359 323.098 22.0703 323.098 22.9297C323.098 23.5469 323.082 24.1367 323.051 24.6992C323.019 25.2617 322.933 25.7852 322.793 26.2695C322.652 26.7461 322.433 27.1797 322.137 27.5703C321.84 27.9609 321.422 28.2969 320.883 28.5781C320.351 28.8516 319.68 29.0625 318.867 29.2109C318.055 29.3594 317.062 29.4336 315.89 29.4336C314.851 29.4336 313.941 29.3789 313.16 29.2695C312.387 29.168 311.723 29.0078 311.168 28.7891C310.613 28.5703 310.156 28.293 309.797 27.957C309.445 27.6133 309.164 27.2109 308.953 26.75C308.75 26.2891 308.609 25.7617 308.531 25.168C308.453 24.5742 308.414 23.9141 308.414 23.1875H314.508V26.2227H317.273V22.7539C317.273 22.5273 317.148 22.3398 316.898 22.1914C316.656 22.043 316.332 21.9102 315.926 21.793C315.527 21.668 315.07 21.5469 314.555 21.4297C314.039 21.3125 313.512 21.1719 312.973 21.0078C312.441 20.8438 311.918 20.6445 311.402 20.4102C310.887 20.1758 310.426 19.8867 310.019 19.543C309.621 19.1914 309.297 18.7734 309.047 18.2891C308.805 17.7969 308.683 17.2109 308.683 16.5312C308.683 15.6875 308.726 14.9375 308.812 14.2812C308.898 13.6172 309.047 13.0391 309.258 12.5469C309.469 12.0547 309.754 11.6406 310.113 11.3047C310.473 10.9609 310.922 10.6836 311.461 10.4727C312.008 10.2617 312.652 10.1094 313.394 10.0156C314.144 9.92188 315.015 9.875 316.008 9.875C317.43 9.875 318.598 9.96875 319.512 10.1562C320.433 10.3438 321.16 10.6562 321.691 11.0938C322.223 11.5312 322.59 12.1055 322.793 12.8164C322.996 13.5273 323.098 14.3984 323.098 15.4297H317.273V13.0859H314.508V15.7812Z" fill="#B000BF"/>
</svg>
